<svg width="62" height="60" viewBox="0 0 62 60" fill="none" xmlns="http://www.w3.org/2000/svg">
<path d="M30.5458 59.894C47.389 59.894 61.0919 46.4596 61.0919 29.9467C61.0919 13.4339 47.3897 0 30.5458 0C13.702 0 0 13.434 0 29.9467C0 46.4595 13.7027 59.894 30.5458 59.894ZM30.5458 14.6367C31.4065 14.6367 32.2565 14.6598 33.0988 14.6965C33.2244 16.5263 33.3277 18.5355 33.4085 20.724C32.4667 20.6987 31.5124 20.6853 30.5457 20.6838C29.5784 20.6838 28.6243 20.6972 27.6832 20.724C27.7623 18.5379 27.8655 16.5287 27.9929 14.6965C28.8354 14.6598 29.6853 14.6367 30.5458 14.6367ZM28.0364 14.088C28.2079 11.7248 28.4117 9.66707 28.6334 7.9262C29.2658 7.8966 29.9028 7.87648 30.5458 7.87648C31.1888 7.87648 31.8254 7.8966 32.4586 7.9262C32.6801 9.66745 32.8844 11.7251 33.0556 14.088C32.2269 14.0526 31.3915 14.0298 30.5458 14.0298C29.7001 14.0298 28.865 14.0526 28.0364 14.088ZM30.5458 45.2572C29.6853 45.2572 28.8354 45.2342 27.9931 45.1976C27.8676 43.3678 27.7644 41.3586 27.6833 39.1701C28.6252 39.1954 29.5793 39.2088 30.5458 39.2103C31.5131 39.2103 32.4674 39.1969 33.4087 39.1701C33.3294 41.3562 33.2262 43.3654 33.0989 45.1976C32.2565 45.2342 31.4065 45.2572 30.5458 45.2572ZM33.0554 45.8061C32.8841 48.1692 32.6801 50.2267 32.4584 51.9679C31.8254 51.9978 31.1889 52.0185 30.5458 52.0185C29.9027 52.0185 29.2665 51.9983 28.6334 51.9679C28.4118 50.2267 28.2076 48.1692 28.0364 45.8061C28.865 45.8415 29.7001 45.8643 30.5458 45.8643C31.3915 45.8643 32.2269 45.8415 33.0554 45.8061ZM26.9238 27.0051C26.9109 28.0136 26.9046 28.9996 26.9046 29.9467C26.9046 30.8939 26.9114 31.8799 26.9238 32.8881C25.1077 32.8661 23.3865 32.8281 21.7601 32.7742C21.7317 31.8418 21.7172 30.8991 21.7164 29.9462C21.7156 28.9933 21.7302 28.0506 21.7601 27.118C23.3885 27.0662 25.1097 27.0286 26.9238 27.0051ZM21.7817 26.5243C21.8431 24.8604 21.9478 23.2347 22.093 21.6599C23.6993 21.5175 25.3581 21.4149 27.0553 21.3546C26.9964 23.0627 26.9553 24.7621 26.9312 26.403C25.2578 26.4263 23.5247 26.4665 21.7817 26.5245V26.5243ZM26.9311 33.4906C26.9552 35.1313 26.9962 36.8309 27.0552 38.539C25.358 38.4788 23.6997 38.376 22.0928 38.2337C21.9477 36.6588 21.843 35.0326 21.7816 33.3685C23.5247 33.4268 25.2578 33.4669 26.9312 33.4914L26.9311 33.4906ZM27.0778 39.1517C27.1529 41.1803 27.2541 43.2121 27.3835 45.171C25.8764 45.0895 24.4023 44.9504 22.9698 44.7582C22.6342 42.9084 22.3596 40.9342 22.1531 38.8662C23.7429 38.9995 25.3845 39.0948 27.0779 39.1519L27.0778 39.1517ZM27.0778 20.7422C25.3866 20.7978 23.7452 20.8929 22.1535 21.0274C22.36 18.9595 22.6351 16.9853 22.97 15.1355C24.4026 14.9435 25.8738 14.806 27.3838 14.723C27.2542 16.6818 27.1535 18.7132 27.0779 20.7422H27.0778ZM21.5038 21.0823C19.405 21.2733 17.4108 21.5305 15.5404 21.8447C15.8332 19.9367 16.2255 18.1084 16.7081 16.3805C18.4704 15.9076 20.3346 15.5229 22.2813 15.2358C21.9609 17.0697 21.6986 19.0247 21.504 21.0823H21.5038ZM21.4478 21.7194C21.3122 23.2776 21.2152 24.8866 21.1568 26.5465C19.0875 26.6203 17.0152 26.7195 15.0172 26.8464C15.1003 25.369 15.2406 23.9268 15.438 22.5199C17.325 22.1916 19.3386 21.9217 21.4479 21.7194H21.4478ZM21.1381 27.14C21.1123 28.0637 21.0986 28.9992 21.097 29.9467C21.097 30.8952 21.1107 31.8307 21.1381 32.7533C18.9082 32.6756 16.8589 32.5744 14.9899 32.4497C14.9525 31.624 14.929 30.7905 14.929 29.9469C14.929 29.1032 14.9525 28.2699 14.9899 27.4438C16.8567 27.3209 18.9062 27.2196 21.1383 27.1398L21.1381 27.14ZM21.1567 33.3469C21.2134 35.0049 21.3104 36.6141 21.4478 38.1746C19.3384 37.9721 17.3247 37.7024 15.4379 37.3739C15.242 35.9695 15.1017 34.5271 15.017 33.0468C17.0154 33.1742 19.0875 33.2732 21.1569 33.3469H21.1567ZM21.5037 38.8116C21.6984 40.8691 21.9607 42.8243 22.2811 44.6579C20.3351 44.3708 18.4702 43.9862 16.708 43.5132C16.2254 41.7854 15.8331 39.9571 15.5402 38.0494C17.4111 38.3635 19.4051 38.6207 21.504 38.8116H21.5037ZM22.3937 45.2836C22.8152 47.5628 23.3295 49.6387 23.9214 51.4656C22.3864 51.2097 20.8694 50.8592 19.3794 50.4161C18.4133 48.5584 17.5773 46.4627 16.899 44.1784C18.6425 44.6351 20.4803 45.0063 22.3937 45.2836ZM23.0868 45.382C24.497 45.5676 25.9429 45.7008 27.4246 45.7818C27.5779 47.9801 27.7684 50.0669 27.9987 51.9325C26.867 51.8618 25.7517 51.7481 24.6591 51.5866C24.0548 49.7651 23.5252 47.6738 23.0868 45.3817V45.382ZM30.5463 26.984C31.5771 26.984 32.5747 26.9903 33.5523 26.9998C33.5623 27.9584 33.5687 28.9364 33.5687 29.947C33.5687 30.9576 33.5623 31.9356 33.5523 32.8939C32.5747 32.9038 31.5771 32.9101 30.5463 32.9101C29.5155 32.9101 28.5182 32.9038 27.5406 32.8939C27.5307 31.9356 27.5243 30.9574 27.5243 29.947C27.5243 28.9366 27.5307 27.9584 27.5406 26.9998C28.5177 26.9901 29.5153 26.9838 30.5458 26.9838L30.5463 26.984ZM27.5463 26.3957C27.5689 24.6155 27.6076 22.9282 27.6624 21.3338C28.6136 21.3059 29.5751 21.2917 30.547 21.291C31.5189 21.2903 32.4805 21.3046 33.4318 21.3338C33.4851 22.9299 33.5236 24.6172 33.5473 26.3957C32.519 26.383 31.513 26.3769 30.547 26.3769C29.581 26.3769 28.5741 26.3833 27.5457 26.3954L27.5463 26.3957ZM33.5466 33.4983C33.5241 35.2788 33.4854 36.9662 33.4305 38.5605C32.4795 38.5883 31.5179 38.6027 30.5458 38.6035C29.5737 38.6044 28.6122 38.59 27.6614 38.5605C27.608 36.9645 27.5693 35.2771 27.5452 33.4983C28.5736 33.511 29.5794 33.517 30.5453 33.517C31.5112 33.517 32.5178 33.5102 33.5461 33.4981L33.5466 33.4983ZM33.6678 45.7818C35.1477 45.7031 36.5935 45.5698 38.0053 45.382C37.5665 47.674 37.0374 49.7654 36.433 51.5866C35.3404 51.7481 34.2252 51.8618 33.0936 51.9325C33.3235 50.0662 33.514 47.9798 33.6673 45.7816L33.6678 45.7818ZM34.1687 27.0054C35.9846 27.0277 37.7057 27.0656 39.332 27.1193C39.3604 28.0518 39.375 28.9945 39.3757 29.9475C39.3765 30.9005 39.3619 31.8432 39.332 32.7755C37.704 32.8279 35.9829 32.8658 34.1687 32.8894C34.1816 31.8812 34.1878 30.8949 34.1878 29.948C34.1878 29.0011 34.1806 28.0136 34.1682 27.0051L34.1687 27.0054ZM34.1612 26.403C34.1371 24.7625 34.0967 23.0636 34.0372 21.3546C35.7343 21.4149 37.3927 21.5175 38.9993 21.6597C39.1443 23.2344 39.2491 24.8608 39.3104 26.5243C37.567 26.4665 35.8342 26.4263 34.1613 26.4028L34.1612 26.403ZM34.1612 33.491C35.8347 33.4672 37.5675 33.4277 39.3106 33.3694C39.2493 35.0332 39.1445 36.6591 38.9993 38.2343C37.393 38.3766 35.7341 38.4794 34.0372 38.5396C34.0956 36.8304 34.1366 35.1314 34.1613 33.4914L34.1612 33.491ZM39.5882 38.8119C41.687 38.621 43.6812 38.3637 45.5516 38.0497C45.2588 39.9576 44.8665 41.7856 44.3839 43.5135C42.6217 43.9864 40.7574 44.3711 38.8107 44.6581C39.1307 42.8243 39.3929 40.8691 39.5877 38.8116L39.5882 38.8119ZM39.6442 38.1748C39.7798 36.6164 39.8768 35.0071 39.9353 33.3471C42.0046 33.2735 44.0768 33.1744 46.0748 33.0474C45.9917 34.5249 45.8514 35.9673 45.654 37.3746C43.7668 37.7024 41.7531 37.9723 39.6437 38.1746L39.6442 38.1748ZM39.9539 32.7536C39.9797 31.8302 39.9934 30.8947 39.995 29.947C39.995 28.9986 39.9813 28.063 39.9539 27.1403C42.1838 27.2179 44.2331 27.3191 46.1021 27.4439C46.1394 28.27 46.1628 29.1033 46.1628 29.947C46.1628 30.7907 46.1394 31.6241 46.1021 32.4498C44.2352 32.5728 42.1857 32.674 39.9534 32.7533L39.9539 32.7536ZM39.9353 26.5467C39.8785 24.8891 39.7815 23.2801 39.6442 21.7197C41.7536 21.9221 43.7673 22.1916 45.6541 22.5202C45.85 23.9245 45.9902 25.3667 46.0748 26.8466C44.0764 26.7195 42.0041 26.6203 39.9348 26.5465L39.9353 26.5467ZM39.5883 21.0826C39.3936 19.0249 39.1312 17.07 38.8107 15.2361C40.7568 15.5232 42.6217 15.9078 44.384 16.3808C44.8665 18.1086 45.2589 19.9369 45.5516 21.8449C43.6807 21.5305 41.6865 21.2733 39.5878 21.0823L39.5883 21.0826ZM38.9386 21.0277C37.3492 20.8947 35.7078 20.7996 34.0146 20.7425C33.9394 18.7137 33.8383 16.682 33.7087 14.7233C35.2159 14.8046 36.6871 14.9421 38.1225 15.1358C38.4565 16.9853 38.7316 18.9595 38.9381 21.0274L38.9386 21.0277ZM34.0141 39.1519C35.705 39.0962 37.3463 39.001 38.938 38.8663C38.7315 40.9344 38.4563 42.9085 38.1214 44.7584C36.6889 44.9505 35.2152 45.0893 33.7077 45.1711C33.8378 43.212 33.9388 41.1805 34.0141 39.1519ZM38.6979 45.2836C40.6115 45.0066 42.4492 44.6354 44.1927 44.1789C43.5143 46.4629 42.6783 48.5584 41.7121 50.4166C40.2221 50.8597 38.7051 51.2103 37.1702 51.4661C37.762 49.6384 38.2764 47.5625 38.6979 45.2836ZM44.8759 43.9963C47.1647 43.359 49.2805 42.5749 51.176 41.6669C50.4671 43.7752 49.5757 45.7563 48.5239 47.5722C46.6716 48.6037 44.6507 49.4775 42.5 50.1725C43.4262 48.314 44.2258 46.2398 44.8759 43.996V43.9963ZM45.0622 43.3266C45.5279 41.6172 45.9064 39.8155 46.1889 37.9396C48.5139 37.5261 50.6314 37.0221 52.495 36.4417C52.2337 37.9465 51.8759 39.4337 51.4238 40.8944C49.5295 41.8421 47.3918 42.6612 45.0622 43.3263V43.3266ZM46.2892 37.2601C46.4785 35.8776 46.6145 34.4599 46.6971 33.0071C48.9395 32.857 51.0682 32.6701 52.9712 32.4442C52.899 33.5538 52.7813 34.6451 52.6183 35.7183C50.7605 36.311 48.6273 36.8299 46.2892 37.2598V37.2601ZM46.7222 32.4073C46.7582 31.595 46.7815 30.776 46.7815 29.947C46.7815 29.118 46.7582 28.2989 46.7222 27.4864C49.1327 27.6547 51.2315 27.8548 53.0072 28.072C53.0376 28.6926 53.0582 29.3165 53.0582 29.947C53.0582 30.5775 53.0376 31.2015 53.0072 31.8221C51.2315 32.0391 49.1327 32.2388 46.7222 32.407V32.4073ZM46.6971 26.8867C46.6169 25.4359 46.4809 24.0184 46.2893 22.6343C48.6273 23.0645 50.7605 23.5833 52.6184 24.1758C52.7832 25.2468 52.899 26.3401 52.9712 27.4496C51.0678 27.2237 48.9395 27.0368 46.6971 26.8867ZM46.1894 21.9546C45.9069 20.0789 45.5284 18.2769 45.0628 16.5677C47.3925 17.2326 49.5301 18.0523 51.4253 18.9996C51.8774 20.4603 52.2351 21.9475 52.4964 23.4523C50.6316 22.8722 48.5139 22.3679 46.1894 21.9546ZM44.8764 15.8977C44.2263 13.6543 43.4267 11.5799 42.5005 9.72148C44.6512 10.4165 46.672 11.2904 48.5243 12.3217C49.5765 14.1377 50.4677 16.1187 51.1766 18.227C49.2805 17.3191 47.1646 16.5351 44.8759 15.8977H44.8764ZM44.1932 15.7151C42.4497 15.2586 40.612 14.8877 38.6985 14.6107C38.277 12.3315 37.7627 10.2554 37.1707 8.42839C38.7056 8.68463 40.2226 9.03537 41.7126 9.47855C42.6783 11.3356 43.5143 13.4315 44.1927 15.7151H44.1932ZM38.0049 14.5125C36.5948 14.3269 35.149 14.1936 33.6673 14.1126C33.5141 11.9143 33.3235 9.82763 33.0931 7.96188C34.2248 8.03274 35.34 8.14598 36.4325 8.30768C37.0371 10.1289 37.5665 12.2202 38.0049 14.5125ZM27.4246 14.1124C25.9447 14.1911 24.4988 14.3244 23.0867 14.5124C23.5255 12.2202 24.0546 10.1289 24.6591 8.30755C25.7517 8.14585 26.8669 8.03261 27.9987 7.9615C27.7684 9.82751 27.5778 11.9142 27.4246 14.1124ZM22.3937 14.6107C20.4803 14.8877 18.6425 15.2586 16.8988 15.7151C17.5773 13.4315 18.4133 11.3356 19.3796 9.47741C20.8696 9.03435 22.3865 8.68361 23.9214 8.42725C23.3295 10.2554 22.8153 12.3315 22.3937 14.6107ZM16.2157 15.8977C13.9272 16.5351 11.8114 17.3191 9.91582 18.227C10.6247 16.1185 11.5161 14.1375 12.5682 12.3217C14.4204 11.29 16.4411 10.4165 18.5915 9.72148C17.6654 11.5799 16.8658 13.6543 16.2157 15.8977ZM16.0294 16.5683C15.5637 18.2778 15.1852 20.0795 14.9027 21.9553C12.5779 22.3687 10.4604 22.8728 8.59686 23.4529C8.85826 21.9481 9.21602 20.4608 9.66803 19C11.5622 18.0523 13.6999 17.2328 16.0289 16.5677L16.0294 16.5683ZM14.8028 22.6342C14.6135 24.0166 14.4775 25.4341 14.3949 26.8866C12.1525 27.0368 10.0242 27.2237 8.12116 27.4495C8.19343 26.34 8.30906 25.2467 8.474 24.1757C10.3313 23.5831 12.4644 23.0641 14.8028 22.6342ZM14.37 27.4862C14.3338 28.2986 14.3106 29.1175 14.3106 29.9467C14.3106 30.776 14.3338 31.5947 14.37 32.407C11.9594 32.2389 9.86071 32.0391 8.08489 31.8219C8.05456 31.2012 8.03404 30.5772 8.03404 29.9467C8.03404 29.3163 8.05456 28.6924 8.08489 28.0718C9.85994 27.8543 11.959 27.6545 14.3696 27.4862H14.37ZM14.3949 33.0069C14.4751 34.4577 14.6111 35.8754 14.8028 37.2598C12.4648 36.8296 10.3318 36.3109 8.474 35.7181C8.30906 34.6468 8.19141 33.5555 8.12103 32.444C10.0237 32.6698 12.1521 32.8567 14.3945 33.0069H14.3949ZM14.9032 37.9391C15.1856 39.8152 15.5642 41.617 16.0298 43.3263C13.7003 42.6612 11.5626 41.8416 9.66726 40.8941C9.21528 39.4334 8.85751 37.9462 8.59609 36.4414C10.4604 37.0214 12.5779 37.5259 14.9028 37.9391H14.9032ZM16.2161 43.996C16.8662 46.2398 17.6658 48.314 18.5919 50.1723C16.4414 49.4773 14.4207 48.6033 12.5686 47.5722C11.5163 45.7563 10.6251 43.775 9.91621 41.6667C11.8114 42.5746 13.9272 43.3587 16.2157 43.996H16.2161ZM18.9843 50.9305C20.8966 54.5102 23.2928 57.2049 25.9753 58.6586C20.8656 57.2805 16.3838 53.641 13.1777 48.5809C14.9818 49.5122 16.9261 50.3026 18.9843 50.9305ZM19.7861 51.1657C21.2165 51.5667 22.6697 51.8847 24.1383 52.1181C25.2453 55.321 26.6013 57.68 28.1154 58.91C24.9126 57.9661 22.0328 55.185 19.7856 51.1657H19.7861ZM24.8816 52.2272C25.9289 52.3739 26.9937 52.4795 28.0762 52.5442C28.4763 55.5809 28.9909 57.9499 29.6363 59.103C27.8505 58.4634 26.205 55.9659 24.8811 52.2272H24.8816ZM30.5463 59.2673C30.0289 59.2673 29.3178 57.0319 28.7151 52.5804C29.3217 52.6072 29.9311 52.625 30.5463 52.625C31.1615 52.625 31.7713 52.6072 32.3778 52.5804C31.7746 57.0319 31.064 59.2673 30.5458 59.2673H30.5463ZM33.0167 52.5442C34.0983 52.4795 35.1631 52.3739 36.211 52.2272C34.8871 55.9659 33.2419 58.4631 31.4564 59.103C32.1013 57.9497 32.6159 55.5807 33.0162 52.5442H33.0167ZM36.9544 52.1181C38.4229 51.8847 39.8761 51.5668 41.3066 51.166C39.0594 55.185 36.1795 57.9661 32.9772 58.91C34.4908 57.68 35.8468 55.321 36.9539 52.1181H36.9544ZM42.1084 50.9305C44.1661 50.3026 46.1107 49.5122 47.9159 48.5809C44.7086 53.641 40.227 57.2805 35.1164 58.6586C37.7993 57.2052 40.1955 54.5104 42.1079 50.9305H42.1084ZM37.5532 58.4675C42.1456 56.5742 46.1187 52.8732 48.9725 48.0126C53.93 45.2151 57.7048 41.3201 59.636 36.8184C57.0139 47.4859 48.435 55.8965 37.5532 58.4675ZM49.5529 46.9755C50.5028 45.2064 51.3088 43.3001 51.9494 41.2827C55.6008 39.408 58.3493 37.0586 59.832 34.4287C58.4263 39.4381 54.7141 43.8317 49.5529 46.9748V46.9755ZM52.1894 40.4967C52.5983 39.0944 52.9226 37.6696 53.1606 36.2299C56.4276 35.1447 58.834 33.8151 60.0886 32.3307C59.1258 35.4695 56.2889 38.293 52.1894 40.4961V40.4967ZM53.2719 35.5012C53.4216 34.4744 53.5294 33.4304 53.5953 32.3692C56.6927 31.977 59.109 31.4721 60.2853 30.8394C59.6328 32.5894 57.0856 34.2027 53.2719 35.5006V35.5012ZM60.4529 29.9467C60.4529 30.4539 58.1729 31.1514 53.6324 31.7421C53.6597 31.1475 53.6777 30.5499 53.6777 29.9467C53.6777 29.3436 53.6597 28.7458 53.6324 28.1513C58.1729 28.7422 60.4529 29.4394 60.4529 29.9467ZM53.5953 27.5249C53.5294 26.4645 53.4216 25.4207 53.2721 24.3934C57.0854 25.691 59.6326 27.3035 60.2853 29.0545C59.109 28.4217 56.6927 27.9174 53.5953 27.5249ZM53.1607 23.6645C52.9227 22.2247 52.5984 20.7999 52.1894 19.3975C56.289 21.6009 59.1259 24.4243 60.0886 27.5636C58.8341 26.0794 56.4276 24.7498 53.1607 23.6645ZM51.9494 18.6119C51.3088 16.5947 50.5026 14.6886 49.5528 12.9193C54.714 16.0624 58.4263 20.4564 59.832 25.4657C58.3493 22.8355 55.6008 20.4863 51.9494 18.6119ZM59.6358 23.076C57.7046 18.5742 53.9299 14.6798 48.9725 11.8822C46.1186 7.02167 42.1454 3.32067 37.5532 1.42772C48.435 3.9972 57.0138 12.4079 59.6358 23.0755V23.076ZM47.9147 11.3128C46.1101 10.3816 44.1656 9.59128 42.1079 8.96334C40.1955 5.38367 37.7993 2.68892 35.1164 1.23514C40.227 2.61326 44.7086 6.2529 47.9147 11.3128ZM41.306 8.72812C39.8757 8.32719 38.4224 8.00923 36.9539 7.77589C35.8468 4.57302 34.4908 2.2142 32.9767 0.983864C36.179 1.92762 39.0589 4.70891 41.306 8.72812ZM36.2105 7.66657C35.1634 7.52023 34.0987 7.41479 33.0162 7.35026C32.6161 4.31364 32.1013 1.94483 31.4559 0.791545C33.2414 1.43101 34.8868 3.92786 36.2105 7.66657ZM30.5458 0.626682C31.0633 0.626682 31.7746 2.86189 32.3773 7.31357C31.7707 7.28674 31.1611 7.26903 30.5458 7.26903C29.9305 7.26903 29.3209 7.28674 28.7145 7.31357C29.3173 2.86189 30.0284 0.626682 30.5458 0.626682ZM28.0757 7.34975C26.994 7.41453 25.9291 7.52023 24.8811 7.66683C26.205 3.92786 27.8505 1.43075 29.6358 0.791039C28.9905 1.94407 28.476 4.31314 28.0757 7.34975ZM24.1377 7.77589C22.6692 8.00923 21.216 8.32719 19.7856 8.72812C22.0328 4.70916 24.9126 1.92762 28.1149 0.983864C26.6008 2.2142 25.2448 4.57302 24.1377 7.77589ZM18.9843 8.96334C16.9267 9.59128 14.9823 10.3816 13.1779 11.3128C16.3839 6.2529 20.8656 2.61352 25.9753 1.2354C23.2923 2.68918 20.8961 5.38367 18.9843 8.96334ZM23.5384 1.42721C18.9455 3.32016 14.973 7.02117 12.1193 11.8817C7.16265 14.6793 3.38722 18.574 1.45615 23.0755C4.07819 12.4079 12.6572 3.9972 23.5384 1.42721ZM11.539 12.9183C10.5891 14.6881 9.78315 16.5942 9.14251 18.6119C5.49111 20.4868 2.74259 22.836 1.25972 25.466C2.66541 20.4559 6.37786 16.0619 11.539 12.9183ZM8.9026 19.3975C8.49354 20.7999 8.16917 22.2247 7.93118 23.6645C4.66424 24.7498 2.25772 26.0794 1.00329 27.5636C1.96592 24.424 4.80298 21.6009 8.9026 19.3975ZM7.81981 24.3934C7.67036 25.4198 7.56281 26.4636 7.49717 27.5249C4.3998 27.9171 1.9836 28.4217 0.80725 29.0545C1.45937 27.3043 4.00644 25.691 7.81981 24.3934ZM0.63896 29.9467C0.63896 29.4394 2.91901 28.7422 7.45961 28.1513C7.43225 28.746 7.41418 29.3436 7.41418 29.9467C7.41418 30.5499 7.43225 31.1476 7.45961 31.7421C2.91901 31.1514 0.63896 30.4539 0.63896 29.9467ZM7.49652 32.3686C7.5626 33.4291 7.6704 34.4731 7.81994 35.5006C4.00631 34.2027 1.45925 32.5894 0.806605 30.8388C1.98283 31.4715 4.39929 31.9761 7.49652 32.3686ZM7.93131 36.2295C8.16929 37.6692 8.49357 39.0938 8.90247 40.4961C4.80311 38.293 1.96618 35.4695 1.00342 32.3301C2.25849 33.8145 4.66424 35.144 7.93131 36.2295ZM9.14251 41.2821C9.78315 43.2995 10.5891 45.2057 11.539 46.9757C6.37786 43.8317 2.66541 39.4381 1.25972 34.4277C2.74259 37.058 5.49111 39.4073 9.14251 41.2821ZM12.1193 48.012C14.973 52.8726 18.9464 56.5736 23.5384 58.4667C12.6571 55.8965 4.07819 47.4859 1.45602 36.8177C3.3871 41.3195 7.16188 45.2142 12.1193 48.012Z" fill="#DDD9CD"/>
</svg>
