<svg width="30" height="17" viewBox="0 0 30 17" fill="C0B9A914" xmlns="http://www.w3.org/2000/svg">
<path d="M1.71937 0.955621L6.13636 0.980769C6.40316 0.980769 6.64032 1.13166 6.72925 1.35799M1.71937 0.955621C0.770751 1.00592 0 1.38314 0 2.33876C0 2.59024 0.0592885 2.86686 0.148221 3.06805C3.37945 10.7885 7.97431 16.9749 13.1028 16.9749H16.0079M1.71937 0.955621L1.71652 1.45561L1.73168 1.4557M1.71937 0.955621L1.74584 1.45492C1.74111 1.45517 1.73639 1.45543 1.73168 1.4557M16.0079 16.9749L16.4229 16.9497M16.0079 16.9749V16.4749H15.9928M16.0079 16.9749L15.9777 16.4758L15.9928 16.4749M16.4229 16.9497C17.1344 16.824 17.5198 16.3462 17.668 15.8935M16.4229 16.9497L16.3927 16.4506L16.3619 16.4525M16.4229 16.9497L16.3359 16.4573C16.3447 16.4558 16.3533 16.4542 16.3619 16.4525M17.668 15.8935L17.7569 15.466C17.8505 15.1259 17.938 14.7858 18.0249 14.448C18.0873 14.2056 18.1494 13.9643 18.2131 13.7252C18.1971 13.7158 18.1759 13.7038 18.145 13.6864C18.1328 13.6795 18.1192 13.6718 18.1037 13.663L18.3498 13.2278L18.8307 13.3646C18.8141 13.423 18.7978 13.4811 18.7818 13.5388L19.1297 13.2129C19.1313 13.2146 19.1329 13.2163 19.1345 13.218M17.668 15.8935L17.1928 15.7379C17.1902 15.7459 17.1875 15.7539 17.1847 15.7618M17.668 15.8935L17.1785 15.7917L17.1847 15.7618M19.1345 13.218C19.1361 13.2198 19.1378 13.2217 19.1394 13.2236L18.7815 13.54C18.7791 13.5484 18.7768 13.5567 18.7745 13.5651C19.0525 13.8618 19.3305 14.1608 19.6093 14.4607C20.249 15.1488 20.893 15.8415 21.5514 16.5222M19.1345 13.218C19.0373 13.1085 18.9529 13.0245 18.8553 12.9521C18.777 12.8939 18.6949 12.848 18.6277 12.8104C18.6167 12.8042 18.6061 12.7983 18.5959 12.7926L18.3404 12.6481M19.1345 13.218C19.417 13.5195 19.6982 13.8219 19.9794 14.1245C20.6116 14.8045 21.2442 15.4849 21.8927 16.1558M21.5514 16.5222C21.8478 16.7737 22.2628 17 22.7668 17C22.8113 17 22.8483 16.9937 22.8854 16.9874C22.9224 16.9811 22.9595 16.9749 23.004 16.9749H27.5099M21.5514 16.5222L21.8748 16.1409C21.8807 16.1459 21.8867 16.1509 21.8927 16.1558M21.5514 16.5222L21.9108 16.1746C21.9047 16.1683 21.8987 16.1621 21.8927 16.1558M27.5099 16.9749L28.0138 16.9497M27.5099 16.9749L27.485 16.4755L27.4974 16.4749M27.5099 16.9749V16.4749H27.4974M28.0138 16.9497C28.9032 16.8743 29.8221 16.3965 29.8221 15.5666C29.8221 15.2899 29.7036 14.963 29.4664 14.6864M28.0138 16.9497L27.9716 16.4515C27.9743 16.4513 27.9771 16.451 27.9798 16.4508M28.0138 16.9497L27.9889 16.4503L27.9798 16.4508M29.4664 14.6864L25.1383 10.0592M29.4664 14.6864L29.1012 15.0279L29.0932 15.0193M29.4664 14.6864L29.0868 15.0118C29.0889 15.0143 29.0911 15.0168 29.0932 15.0193M25.1383 10.0592C24.9901 9.90828 24.9012 9.7574 24.9012 9.60651C24.9012 9.43047 24.9901 9.25444 25.168 9.05326M25.1383 10.0592L24.7817 10.4096C24.7801 10.408 24.7786 10.4064 24.7771 10.4049M25.1383 10.0592L24.7732 10.4007L24.7771 10.4049M25.168 9.05326C25.5335 8.58815 26.0387 8.05195 26.5863 7.47067C27.993 5.97761 29.6799 4.18712 30 2.53994M25.168 9.05326L24.7749 8.74431C24.7777 8.74066 24.7806 8.73702 24.7835 8.73337M25.168 9.05326L24.7934 8.72208C24.7901 8.72583 24.7868 8.72959 24.7835 8.73337M30 2.53994V2.36391M30 2.53994H29.5V2.4898M30 2.53994L29.5495 2.45241L30 2.36391M30 2.36391C29.9931 2.32887 29.991 2.28164 29.9885 2.22535C29.9803 2.03921 29.9677 1.75406 29.7628 1.48373C29.6146 1.2574 29.2885 1.00592 28.8439 1.00592L28.5474 0.980769M30 2.36391H29.5V2.40035M28.5474 0.980769H23.9526C23.834 0.980769 23.7451 1.00592 23.6858 1.03107C23.33 1.13166 22.5 1.50888 22.1739 2.06213C22.166 2.07561 22.158 2.08728 22.1507 2.09811C22.1305 2.12771 22.1146 2.15105 22.1146 2.18787C21.8775 3.34467 20.1285 5.53254 18.587 7.36834M28.5474 0.980769V1.48077H28.5263M28.5474 0.980769L28.5052 1.47898L28.5263 1.48077M18.587 7.36834C18.3498 7.69527 18.0534 7.82101 17.8162 7.82101C17.668 7.82101 17.5494 7.77071 17.4308 7.69527V1.98669C17.4308 0.502959 16.1858 0 14.8221 0M18.587 7.36834L18.9917 7.66194C18.9879 7.66708 18.9842 7.6722 18.9804 7.67729M18.587 7.36834L18.9699 7.68987C18.9734 7.68568 18.9769 7.68148 18.9804 7.67729M14.8221 0L13.1621 0.0251479C11.3241 0.0251479 10.0198 0.578402 9.60474 1.65976C9.5751 1.71006 9.5751 1.76036 9.5751 1.81065C9.5751 2.06213 9.78261 2.31361 10.1087 2.36391M14.8221 0L14.8297 0.499943L14.8258 0.500001M14.8221 0V0.5C14.8234 0.5 14.8246 0.5 14.8258 0.500001M10.1087 2.36391C10.9387 2.4645 11.2945 2.56509 11.2945 3.19379L11.2648 7.54438L11.1759 7.82101C11.087 7.94675 10.9684 7.99704 10.8498 7.99704C10.7016 7.99704 10.5534 7.9216 10.4644 7.77071M10.1087 2.36391L10.1849 1.86975C10.1829 1.86944 10.181 1.86912 10.1791 1.86878M10.1087 2.36391L10.1688 1.86754C10.1723 1.86795 10.1757 1.86836 10.1791 1.86878M10.4644 7.77071C8.98221 5.83432 7.73715 4.12426 6.72925 1.35799M10.4644 7.77071L10.0337 8.02459C10.0397 8.03476 10.0458 8.04478 10.0521 8.05464M10.4644 7.77071L10.0674 8.07462C10.0623 8.06796 10.0572 8.0613 10.0521 8.05464M6.72925 1.35799L6.25946 1.52916C6.26061 1.5323 6.26175 1.53544 6.26289 1.53857M6.72925 1.35799L6.26389 1.54084C6.26362 1.54017 6.26329 1.53941 6.26289 1.53857M6.26289 1.53857C7.29348 4.36321 8.5703 6.11821 10.0521 8.05464M6.26289 1.53857C6.25955 1.53156 6.25107 1.51906 6.2311 1.50636C6.20862 1.49205 6.17594 1.48077 6.13636 1.48077H6.13352V1.48076L1.73168 1.4557M10.0521 8.05464C10.2351 8.34174 10.5386 8.49704 10.8498 8.49704C11.1256 8.49704 11.3985 8.3721 11.5841 8.10973L11.6284 8.04708L11.6519 7.97404L11.7408 7.69741L11.7643 7.62444L11.7648 7.54779L11.7945 3.19719H11.7945V3.19379C11.7945 2.99351 11.7668 2.78998 11.6791 2.60186C11.5869 2.40383 11.4441 2.25712 11.2712 2.15274C10.9723 1.97228 10.5649 1.91566 10.1791 1.86878M10.1791 1.86878C10.1297 1.85995 10.1014 1.83918 10.0874 1.82401C10.0846 1.82096 10.0824 1.8182 10.0807 1.81579M10.0807 1.81579C10.1107 1.74146 10.1474 1.6693 10.1909 1.59961M10.0807 1.81579C10.0774 1.81125 10.0758 1.80794 10.0751 1.80617L10.0752 1.79135C10.0752 1.79205 10.0749 1.79838 10.0735 1.80809C10.0733 1.80893 10.0732 1.80978 10.0731 1.81065C10.0718 1.81843 10.07 1.82743 10.0674 1.83733C10.0616 1.85947 10.0517 1.8861 10.0355 1.91364L10.0566 1.87778L10.0715 1.83892C10.0745 1.83119 10.0775 1.82348 10.0807 1.81579ZM10.1909 1.59961L11.0472 1.94705C11.374 2.07964 11.6131 2.20954 11.7756 2.38557C11.9212 2.54323 12.0395 2.77574 12.0395 3.19379V7.59183M10.1909 1.59961L10.0882 1.55797L10.3136 1.43048M10.1909 1.59961C10.2271 1.54147 10.268 1.48503 10.3136 1.43048M12.0395 7.59183C11.9702 8.13996 11.3983 8.5784 10.7609 8.5784C10.3652 8.5784 10.019 8.38587 9.81552 8.07518L9.80419 8.05788L9.79147 8.04158C8.47057 6.3483 7.37396 4.77883 6.42024 2.52414M12.0395 7.59183C12.0405 7.58442 12.0413 7.577 12.0421 7.56956L12.5395 7.61982M12.0395 7.59183V7.61982H12.5395M6.42024 2.52414L6.15464 1.87323L6.02857 1.56427L5.69489 1.56214L1.7522 1.53699L1.7522 1.53698H1.74901C1.61749 1.53698 1.50103 1.53831 1.40753 1.54624C1.33522 1.55237 1.17638 1.56719 1.03445 1.6618C0.830346 1.79784 0.784594 2.00034 0.775421 2.11317C0.771652 2.15954 0.772783 2.20315 0.773345 2.22481L0.773366 2.22562C0.773554 2.23289 0.773733 2.23924 0.773895 2.245C0.774372 2.26194 0.774704 2.27373 0.774704 2.28846C0.774704 2.48709 0.811192 2.72771 0.847334 2.88101L0.857959 2.92608L0.876681 2.96843L1.49921 4.37671L1.49918 4.37672L1.50153 4.38187C3.13036 7.95674 4.98004 10.944 6.9296 13.046C8.86978 15.1379 10.9722 16.4186 13.1028 16.4186H16.0672C16.262 16.4186 16.4507 16.3663 16.6095 16.2436C16.7614 16.1263 16.8434 15.9772 16.8906 15.8599C16.9363 15.7461 16.9613 15.6301 16.9771 15.5569C16.9966 15.4658 17.0041 15.4312 17.0129 15.4063L17.0205 15.385L17.0261 15.363L17.5749 13.2065M6.42024 2.52414L6.42144 2.52708L5.9585 2.71598M6.42024 2.52414C6.41984 2.52318 6.41943 2.52222 6.41902 2.52125L5.9585 2.71598M17.5749 13.2065C17.5781 13.2004 17.5812 13.1944 17.5843 13.1884C17.6924 12.981 17.7379 12.8937 17.8432 12.8044C17.8859 12.7681 17.93 12.7389 17.9756 12.716M17.5749 13.2065C17.5662 13.2231 17.5572 13.2405 17.5476 13.2587L17.1047 13.0266M17.5749 13.2065L17.5893 13.15L17.1047 13.0266M17.9756 12.716L17.8689 13.091C17.7564 13.4863 17.6461 13.9143 17.5368 14.3384C17.449 14.6788 17.3619 15.0168 17.2748 15.3334L17.2706 15.3486L17.2674 15.3641L17.1847 15.7618M17.9756 12.716L18.0428 12.4798L18.2905 12.6199L18.3404 12.6481M17.9756 12.716C18.0729 12.667 18.1772 12.6465 18.2905 12.6465C18.307 12.6465 18.3237 12.647 18.3404 12.6481M17.1847 15.7618C17.0804 16.0572 16.8322 16.3602 16.3619 16.4525M16.3619 16.4525L15.9928 16.4749M15.9928 16.4749H13.1028C10.7486 16.4749 8.44339 15.0525 6.29062 12.5877C4.14506 10.1311 2.21347 6.70751 0.609454 2.87501L0.609545 2.87497L0.605533 2.86589C0.546022 2.73127 0.5 2.52384 0.5 2.33876C0.5 2.01906 0.617289 1.83989 0.792581 1.71597C0.993157 1.57418 1.31097 1.47971 1.73168 1.4557M18.3404 12.6481C18.6843 12.6701 19.0694 12.9146 19.3841 13.2239M19.3841 13.2239L22.5947 2.31015M19.3841 13.2239L19.3765 13.2158L19.7431 12.8757M19.3841 13.2239C19.3865 13.2263 19.3889 13.2287 19.3914 13.2311L19.7431 12.8757M19.3841 13.2239L21.8798 15.914M19.3841 13.2239L22.5947 2.31015M21.8927 16.1558C22.1286 16.351 22.4266 16.5 22.7668 16.5C22.7641 16.5 22.763 16.501 22.8017 16.4945L22.807 16.4936C22.8442 16.4872 22.9167 16.4749 23.004 16.4749H27.4974M27.4974 16.4749L27.9798 16.4508M27.9798 16.4508C28.3564 16.4176 28.7172 16.3003 28.9697 16.128C29.2173 15.9591 29.3221 15.77 29.3221 15.5666C29.3221 15.425 29.2575 15.2143 29.0932 15.0193M29.0932 15.0193L24.7771 10.4049M24.7771 10.4049C24.5992 10.2226 24.4012 9.95239 24.4012 9.60651C24.4012 9.25665 24.5776 8.96894 24.7835 8.73337M24.7835 8.73337C25.1245 8.30086 25.5736 7.81732 26.0465 7.31457C26.1048 7.25258 26.1636 7.19022 26.2227 7.12748C26.6528 6.67094 27.1014 6.19478 27.5295 5.70378C28.5057 4.5841 29.2911 3.47735 29.5 2.4898M29.5 2.4898C29.5027 2.47711 29.5053 2.46444 29.5078 2.45178C29.5047 2.43498 29.5021 2.41764 29.5 2.40035M29.5 2.4898V2.40035M29.5 2.40035C29.4928 2.34203 29.4905 2.28425 29.4891 2.24926C29.4888 2.24378 29.4886 2.23887 29.4885 2.23459C29.4858 2.17413 29.4828 2.12237 29.4753 2.06929C29.461 1.9681 29.4315 1.87429 29.3643 1.78571L29.354 1.77202L29.3446 1.75766C29.274 1.64991 29.0947 1.50592 28.8439 1.50592H28.8227L28.8016 1.50413L28.5263 1.48077M28.5263 1.48077H23.9526C23.9067 1.48077 23.8839 1.49014 23.881 1.49137L23.8521 1.50364L23.8218 1.5122C23.6891 1.54972 23.4334 1.65081 23.1764 1.80534C22.9127 1.9639 22.706 2.14409 22.6047 2.31601C22.6014 2.32157 22.5981 2.32692 22.595 2.33201M22.595 2.33201C22.5965 2.3256 22.5979 2.31921 22.5993 2.31282C22.601 2.30462 22.6028 2.29644 22.6044 2.28829L22.6146 2.23859V2.18787C22.6146 2.22086 22.6102 2.25465 22.6014 2.28767C22.5999 2.29358 22.5982 2.29947 22.5963 2.30533C22.5958 2.30696 22.5953 2.30857 22.5947 2.31015M22.595 2.33201C22.5827 2.35194 22.5718 2.3679 22.5659 2.37671L22.5656 2.3771C22.5608 2.38413 22.5591 2.38671 22.5591 2.3867C22.5591 2.38669 22.5614 2.38305 22.5639 2.37888C22.5702 2.36812 22.5834 2.34416 22.5947 2.31015M22.595 2.33201C22.5151 2.68498 22.3375 3.07559 22.1167 3.47097C21.8828 3.88976 21.5822 4.34572 21.2464 4.8146C20.578 5.74801 19.7494 6.76129 18.9804 7.67729M18.9804 7.67729C18.6615 8.10803 18.227 8.32101 17.8162 8.32101C17.5396 8.32101 17.3275 8.22217 17.1624 8.11712L16.9308 7.96977V7.69527V1.98669C16.9308 1.41167 16.7033 1.07448 16.3665 0.856927C15.999 0.619513 15.4579 0.500464 14.8258 0.500001M14.8258 0.500001L13.1696 0.525091L13.1621 0.525205V0.525148C11.7052 0.525148 10.7716 0.883062 10.3136 1.43048M10.3136 1.43048L10.989 1.04851C11.5373 0.738455 12.1664 0.607174 13.1545 0.606511M13.1545 0.606511L13.1472 0.60673L13.1621 1.10651M13.1545 0.606511L14.8369 0.556434L14.8443 0.556213H14.8518C15.3554 0.556213 15.8259 0.614883 16.1722 0.857114C16.569 1.13464 16.6858 1.55948 16.6858 1.98669V7.77071C16.6858 7.88612 16.7476 8.01684 16.9647 8.14401C17.1854 8.27332 17.5021 8.35207 17.8162 8.35207C18.2032 8.35207 18.5829 8.24159 18.9237 7.98398C19.5826 7.22565 20.3599 6.31402 21.0569 5.39667C21.7676 4.4613 22.3709 3.55044 22.6876 2.80752L22.8615 2.34036L22.8939 2.25325L22.9554 2.18361C23.1999 1.90706 23.5157 1.71255 23.8808 1.58865L23.959 1.56213H24.0415H28.6957H29.0915L29.1823 1.9474C29.203 2.0352 29.2132 2.11313 29.2203 2.16767L29.2211 2.17323C29.2287 2.23166 29.2334 2.26455 29.2416 2.29947L29.2707 2.42299L29.2374 2.54545L29.1485 2.87237L29.1447 2.88618L29.1402 2.89975C28.7915 3.94208 27.8976 5.04392 27.0026 6.03437C26.6582 6.41551 26.3138 6.78031 25.9856 7.12794C25.4235 7.72331 24.9089 8.2683 24.5236 8.75865L24.5184 8.76529L24.5129 8.77175C24.2699 9.06036 24.1561 9.35272 24.1561 9.60651C24.1561 9.83554 24.2403 10.0945 24.5238 10.3951M13.1545 0.606511C13.157 0.60651 13.1595 0.606509 13.1621 0.606509V1.10651M13.1621 1.10651C12.6181 1.10651 12.2105 1.14786 11.878 1.23056C11.7236 1.14725 11.5685 1.07939 11.4232 1.02041L11.2352 1.48373L11.4813 1.91895C11.5799 1.86317 11.6867 1.81345 11.8107 1.77097C12.2311 2.04331 12.5395 2.45035 12.5395 3.19379V7.61982M13.1621 1.10651L14.8518 1.05621C15.83 1.05621 16.1858 1.30769 16.1858 1.98669V7.77071C16.1858 8.47485 17.0455 8.85207 17.8162 8.85207C18.3202 8.85207 18.8241 8.70118 19.2688 8.34911C20.6028 6.81509 22.4704 4.60207 23.1522 2.9926L23.33 2.51479L24.5238 10.3951M12.5395 7.61982C12.4506 8.5 11.5909 9.0784 10.7609 9.0784C10.1976 9.0784 9.69368 8.80177 9.39723 8.34911C8.06324 6.63905 6.93676 5.02959 5.9585 2.71598M5.9585 2.71598L5.6917 2.06213L1.74901 2.03698C1.2682 2.03698 1.26878 2.0574 1.27359 2.22703C1.27412 2.24566 1.2747 2.26607 1.2747 2.28846C1.2747 2.43935 1.30435 2.64053 1.33399 2.76627L1.95652 4.17456C5.18775 11.2663 9.24901 15.9186 13.1028 15.9186H16.0672C16.3886 15.9186 16.4433 15.6623 16.4929 15.4298C16.5074 15.3621 16.5214 15.2964 16.5415 15.2396L17.1047 13.0266M17.1047 13.0266C17.1181 13.0012 17.1311 12.976 17.1439 12.9512C17.2448 12.7553 17.3356 12.5793 17.5198 12.4231C17.7569 12.2219 18.0237 12.1465 18.2905 12.1465C18.8538 12.1465 19.3874 12.5237 19.7431 12.8757M19.7431 12.8757L22.2628 15.5917M22.2628 15.5917L21.8629 15.8918C21.8685 15.8993 21.8741 15.9067 21.8798 15.914M22.2628 15.5917L21.8963 15.9318L21.8798 15.914M22.2628 15.5917C22.4704 15.8683 22.6482 15.9186 22.7668 15.9186H27.6581C28.1324 15.9186 28.5474 15.7929 28.5474 15.5414C28.5474 15.466 28.5178 15.3654 28.4585 15.2899L24.1601 10.7382M21.8798 15.914C22.158 16.2743 22.4672 16.4186 22.7668 16.4186H27.6581C27.9298 16.4186 28.2194 16.3838 28.4605 16.2909C28.6682 16.2108 29.0474 15.9967 29.0474 15.5414C29.0474 15.3597 28.9837 15.149 28.8516 14.981L28.8376 14.9632L28.822 14.9467L24.5238 10.3951M24.5238 10.3951L24.1601 10.7382M24.5238 10.3951L24.5236 10.3949L24.1601 10.7382M24.5238 10.3951L24.1304 8.4497C23.834 8.80177 23.6561 9.20414 23.6561 9.60651C23.6561 9.98373 23.8043 10.3609 24.1601 10.7382" fill="#C0B9A914" stroke="#DDD9CD"/>
</svg>
